<svg width="17" height="18" viewBox="0 0 17 18" fill="none" xmlns="http://www.w3.org/2000/svg">
<path d="M7.2 4.5H9V13.5H7.2V4.5ZM10.8 8.1H12.6V13.5H10.8V8.1ZM3.6 9.9H5.4V13.5H3.6V9.9ZM10.8 1.8H1.8V16.2H14.4V5.4H10.8V1.8ZM0 0.8928C0 0.3996 0.4023 0 0.8991 0H11.7L16.2 4.5V17.0937C16.2008 17.2119 16.1784 17.3291 16.1339 17.4386C16.0894 17.5481 16.0238 17.6478 15.9409 17.7319C15.8579 17.8161 15.7591 17.8831 15.6502 17.9291C15.5414 17.9751 15.4245 17.9992 15.3063 18H0.8937C0.65734 17.9984 0.431116 17.9038 0.263896 17.7367C0.0966761 17.5697 0.00188518 17.3436 0 17.1072V0.8928Z" fill="#525866"/>
</svg>
