<svg width="33" height="25" viewBox="0 0 33 25" fill="none" xmlns="http://www.w3.org/2000/svg">
<g filter="url(#filter0_ii_9650_1825)">
<path d="M0.5 3.5C0.5 1.84315 1.84315 0.5 3.5 0.5H29.5C31.1569 0.5 32.5 1.84315 32.5 3.5V21.5C32.5 23.1569 31.1569 24.5 29.5 24.5H3.5C1.84315 24.5 0.5 23.1569 0.5 21.5V3.5Z" fill="#FFD5C0"/>
<path d="M13.5 9.5H19.5V15.5H13.5V9.5Z" fill="#FFD5C0"/>
</g>
<path d="M13.5 9.5H19.5M13.5 9.5V15.5M13.5 9.5L11.5204 7.06304C10.9508 6.36175 10.0954 5.95455 9.19188 5.95455H0.5M19.5 9.5V15.5M19.5 9.5L21.7241 6.97266C22.2936 6.32545 23.1141 5.95455 23.9762 5.95455H32.5M19.5 15.5H13.5M19.5 15.5L21.7241 18.0273C22.2936 18.6746 23.1141 19.0455 23.9762 19.0455H32.5M13.5 15.5L11.5204 17.937C10.9508 18.6383 10.0954 19.0455 9.19187 19.0455H0.5M16.75 0.5V6.5M16.75 18.5V24.5M32.5 12.7727H22.5M10.5 12.7727H0.5M3.5 24.5H29.5C31.1569 24.5 32.5 23.1569 32.5 21.5V3.5C32.5 1.84315 31.1569 0.5 29.5 0.5H3.5C1.84315 0.5 0.5 1.84315 0.5 3.5V21.5C0.5 23.1569 1.84315 24.5 3.5 24.5Z" stroke="#0E121B"/>
<defs>
<filter id="filter0_ii_9650_1825" x="0" y="-2" width="33" height="29" filterUnits="userSpaceOnUse" color-interpolation-filters="sRGB">
<feFlood flood-opacity="0" result="BackgroundImageFix"/>
<feBlend mode="normal" in="SourceGraphic" in2="BackgroundImageFix" result="shape"/>
<feColorMatrix in="SourceAlpha" type="matrix" values="0 0 0 0 0 0 0 0 0 0 0 0 0 0 0 0 0 0 127 0" result="hardAlpha"/>
<feOffset dy="2"/>
<feGaussianBlur stdDeviation="3"/>
<feComposite in2="hardAlpha" operator="arithmetic" k2="-1" k3="1"/>
<feColorMatrix type="matrix" values="0 0 0 0 0 0 0 0 0 0 0 0 0 0 0 0 0 0 1 0"/>
<feBlend mode="overlay" in2="shape" result="effect1_innerShadow_9650_1825"/>
<feColorMatrix in="SourceAlpha" type="matrix" values="0 0 0 0 0 0 0 0 0 0 0 0 0 0 0 0 0 0 127 0" result="hardAlpha"/>
<feOffset dy="-2"/>
<feGaussianBlur stdDeviation="1"/>
<feComposite in2="hardAlpha" operator="arithmetic" k2="-1" k3="1"/>
<feColorMatrix type="matrix" values="0 0 0 0 0 0 0 0 0 0 0 0 0 0 0 0 0 0 0.48 0"/>
<feBlend mode="overlay" in2="effect1_innerShadow_9650_1825" result="effect2_innerShadow_9650_1825"/>
</filter>
</defs>
</svg>
