<svg width="354" height="270" viewBox="0 0 354 270" fill="none" xmlns="http://www.w3.org/2000/svg">
<path d="M137.387 0.5H297.056C305.008 0.500151 309.921 9.17284 305.834 15.9941L196.601 198.309C192.813 204.631 185.983 208.5 178.613 208.5H18.9443C10.9925 208.5 6.07904 199.827 10.166 193.006L119.399 10.6914C123.187 4.36932 130.017 0.5 137.387 0.5Z" stroke="#E1E4EA"/>
<path d="M175.387 61.5H335.056C343.008 61.5002 347.921 70.1728 343.834 76.9941L234.601 259.309C230.813 265.631 223.983 269.5 216.613 269.5H56.9443C48.9925 269.5 44.079 260.827 48.166 254.006L157.399 71.6914C161.187 65.3693 168.017 61.5 175.387 61.5Z" stroke="#E1E4EA"/>
</svg>
